<svg id="Layer_1" data-name="Layer 1" xmlns="http://www.w3.org/2000/svg" viewBox="0 0 334.59 367.966"><path d="M342.316,105V375a21.665,21.665,0,0,0,6.151,14.849A23.371,23.371,0,0,0,363.316,396c5.432-.243,11.064-2.027,14.85-6.151A21.823,21.823,0,0,0,384.316,375V233.175a21.668,21.668,0,0,0-6.15-14.85,23.362,23.362,0,0,0-14.85-6.15c-5.431.243-11.064,2.027-14.849,6.15a21.828,21.828,0,0,0-6.151,14.85V375a21.665,21.665,0,0,0,6.151,14.849A23.371,23.371,0,0,0,363.316,396c5.432-.243,11.064-2.027,14.85-6.151A21.823,21.823,0,0,0,384.316,375V105a21.664,21.664,0,0,0-6.15-14.849A23.37,23.37,0,0,0,363.316,84c-5.431.243-11.064,2.027-14.849,6.151A21.824,21.824,0,0,0,342.316,105Z" transform="translate(-49.727 -83.987)" style="fill:#497986"/><path d="M49.826,105.239v270a21.665,21.665,0,0,0,6.151,14.849,15.743,15.743,0,0,0,6.758,4.343,15.826,15.826,0,0,0,8.091,1.808c5.431-.243,11.064-2.027,14.849-6.151a21.819,21.819,0,0,0,6.151-14.849V233.414a21.66,21.66,0,0,0-6.151-14.849,15.743,15.743,0,0,0-6.758-4.343,15.826,15.826,0,0,0-8.091-1.808c-5.431.243-11.064,2.027-14.849,6.151a21.819,21.819,0,0,0-6.151,14.849V375.239a21.665,21.665,0,0,0,6.151,14.849,15.743,15.743,0,0,0,6.758,4.343,15.826,15.826,0,0,0,8.091,1.808c5.431-.243,11.064-2.027,14.849-6.151a21.819,21.819,0,0,0,6.151-14.849v-270A21.662,21.662,0,0,0,85.675,90.39a15.741,15.741,0,0,0-6.758-4.342,15.816,15.816,0,0,0-8.091-1.809c-5.431.243-11.064,2.027-14.849,6.151a21.821,21.821,0,0,0-6.151,14.849Z" transform="translate(-49.727 -83.987)" style="fill:#497986"/><path d="M139,84.239H70.826A21.66,21.66,0,0,0,55.977,90.39a15.741,15.741,0,0,0-4.342,6.758,15.816,15.816,0,0,0-1.809,8.091c.243,5.431,2.027,11.064,6.151,14.849a21.819,21.819,0,0,0,14.849,6.151h35.81a21.669,21.669,0,0,0,14.85-6.151,15.75,15.75,0,0,0,4.342-6.758,15.816,15.816,0,0,0,1.808-8.091c-.243-5.431-2.027-11.064-6.15-14.849a21.823,21.823,0,0,0-14.85-6.151H70.826A21.66,21.66,0,0,0,55.977,90.39a15.741,15.741,0,0,0-4.342,6.758,15.816,15.816,0,0,0-1.809,8.091c.243,5.431,2.027,11.064,6.151,14.849a21.819,21.819,0,0,0,14.849,6.151H139a21.667,21.667,0,0,0,14.849-6.151,15.741,15.741,0,0,0,4.342-6.758A15.816,15.816,0,0,0,160,105.239c-.243-5.431-2.027-11.064-6.151-14.849A21.821,21.821,0,0,0,139,84.239Z" transform="translate(-49.727 -83.987)" style="fill:#497986"/><path d="M138.913,354.239H70.739A21.667,21.667,0,0,0,55.89,360.39a15.741,15.741,0,0,0-4.342,6.758,15.816,15.816,0,0,0-1.809,8.091c.243,5.431,2.027,11.064,6.151,14.849a21.821,21.821,0,0,0,14.849,6.151h35.81a21.665,21.665,0,0,0,14.85-6.151,23.357,23.357,0,0,0,6.15-14.849c-.243-5.431-2.027-11.064-6.15-14.849a21.823,21.823,0,0,0-14.85-6.151H70.739A21.667,21.667,0,0,0,55.89,360.39a15.741,15.741,0,0,0-4.342,6.758,15.816,15.816,0,0,0-1.809,8.091c.243,5.431,2.027,11.064,6.151,14.849a21.821,21.821,0,0,0,14.849,6.151h68.174a21.66,21.66,0,0,0,14.849-6.151,23.365,23.365,0,0,0,6.151-14.849c-.243-5.431-2.027-11.064-6.151-14.849a21.819,21.819,0,0,0-14.849-6.151Z" transform="translate(-49.727 -83.987)" style="fill:#497986"/><path d="M362.913,84.239H294.739A21.667,21.667,0,0,0,279.89,90.39a15.741,15.741,0,0,0-4.342,6.758,15.816,15.816,0,0,0-1.809,8.091c.243,5.431,2.027,11.064,6.151,14.849a21.821,21.821,0,0,0,14.849,6.151h35.81a21.665,21.665,0,0,0,14.85-6.151,15.741,15.741,0,0,0,4.342-6.758,15.806,15.806,0,0,0,1.808-8.091c-.243-5.431-2.027-11.064-6.15-14.849a21.823,21.823,0,0,0-14.85-6.151h-35.81A21.667,21.667,0,0,0,279.89,90.39a15.741,15.741,0,0,0-4.342,6.758,15.816,15.816,0,0,0-1.809,8.091c.243,5.431,2.027,11.064,6.151,14.849a21.821,21.821,0,0,0,14.849,6.151h68.174a21.66,21.66,0,0,0,14.849-6.151,15.731,15.731,0,0,0,4.342-6.758,15.816,15.816,0,0,0,1.809-8.091c-.243-5.431-2.027-11.064-6.151-14.849a21.819,21.819,0,0,0-14.849-6.151Z" transform="translate(-49.727 -83.987)" style="fill:#497986"/><path d="M362.913,354.239H294.739a21.667,21.667,0,0,0-14.849,6.151,23.365,23.365,0,0,0-6.151,14.849c.243,5.431,2.027,11.064,6.151,14.849a21.821,21.821,0,0,0,14.849,6.151h35.81a21.665,21.665,0,0,0,14.85-6.151,23.357,23.357,0,0,0,6.15-14.849c-.243-5.431-2.027-11.064-6.15-14.849a21.823,21.823,0,0,0-14.85-6.151h-35.81a21.667,21.667,0,0,0-14.849,6.151,23.365,23.365,0,0,0-6.151,14.849c.243,5.431,2.027,11.064,6.151,14.849a21.821,21.821,0,0,0,14.849,6.151h68.174a21.66,21.66,0,0,0,14.849-6.151,23.365,23.365,0,0,0,6.151-14.849c-.243-5.431-2.027-11.064-6.151-14.849a21.819,21.819,0,0,0-14.849-6.151Z" transform="translate(-49.727 -83.987)" style="fill:#497986"/><text transform="translate(71.013 244.186)" style="font-size:250px;fill:#497986;font-family:SegoeScript-Bold, Segoe Script;font-weight:700">T</text></svg>