<svg id="Layer_1" data-name="Layer 1" xmlns="http://www.w3.org/2000/svg" viewBox="0 0 299.988 380.15"><defs><style>.cls-1{fill:#497986;}</style></defs><path class="cls-1" d="M218.316,104V374c0,4.708,4.14,9.218,9,9a9.156,9.156,0,0,0,9-9V232.175c0-4.708-4.139-9.218-9-9a9.156,9.156,0,0,0-9,9V374c0,4.708,4.14,9.218,9,9a9.156,9.156,0,0,0,9-9V104c0-4.708-4.139-9.218-9-9a9.156,9.156,0,0,0-9,9Z" transform="translate(-67.018 -52.872)"/><path class="cls-1" d="M217.093,419.458q-36.228-56.15-69.487-114.139c-10.611-18.5-21.2-37.053-30.887-56.057q-6.939-13.615-13.008-27.638c-.873-2.031.761,1.845-.083-.2-.243-.589-.489-1.176-.731-1.765q-.606-1.471-1.2-2.95-1.536-3.843-2.972-7.726-2.649-7.171-4.9-14.481a225.962,225.962,0,0,1-7.074-29.9q-.312-1.914-.588-3.832c-.1-.668-.016-2.622-.018-.083a14.833,14.833,0,0,0-.207-1.661q-.4-3.35-.65-6.714c-.335-4.524-.461-9.064-.343-13.6q.088-3.392.369-6.775.141-1.681.334-3.357c.063-.554.163-1.113.2-1.668-.209,2.784-.065.56.037-.094a86.257,86.257,0,0,1,3.071-13.091c.606-1.878,1.427-3.681,2.042-5.549-.813,2.471-.321.777-.056.195q.33-.726.678-1.442.809-1.666,1.715-3.28a56.641,56.641,0,0,1,3.086-4.891,10.908,10.908,0,0,0,.928-1.273c-.968,1.969-.661.839-.113.166q1.206-1.479,2.518-2.866a52.157,52.157,0,0,1,4.385-4.129,10.849,10.849,0,0,0,1.256-1.022c-1.415,1.647-.805.617-.109.112q1.51-1.1,3.094-2.092,2.472-1.555,5.087-2.865,1.423-.714,2.878-1.361c.7-.31,2.144-.517-.2.073a19.576,19.576,0,0,0,1.98-.778,118.986,118.986,0,0,1,25.02-5.928c1.96-.285-2.229.282-.267.034.531-.067,1.061-.136,1.592-.2q1.585-.2,3.174-.375c2.508-.283,5.019-.541,7.531-.794q8.4-.846,16.816-1.536,17.172-1.408,34.389-2.169a915.685,915.685,0,0,1,134.824,3.993q8.4.871,16.787,1.9c2.126.26,4.92-1.192,6.364-2.636a9,9,0,0,0,0-12.728A10.5,10.5,0,0,0,358,59.653a917.746,917.746,0,0,0-137.559-6.4q-34.449.991-68.758,4.577c-18.458,1.93-37.934,4.6-53.725,15.164C62.517,96.7,63.472,144.939,71.851,182.009c9.383,41.508,30.211,79.332,50.938,116.088q33.358,59.156,69.819,116.49,4.449,6.993,8.943,13.955c2.549,3.952,8.1,5.943,12.313,3.229,3.95-2.546,5.959-8.082,3.229-12.313Z" transform="translate(-67.018 -52.872)"/></svg>