<svg id="Layer_1" data-name="Layer 1" xmlns="http://www.w3.org/2000/svg" viewBox="0 0 334.59 312.264"><path d="M342.316,105V375a21.665,21.665,0,0,0,6.151,14.849A23.371,23.371,0,0,0,363.316,396c5.432-.243,11.064-2.027,14.85-6.151A21.823,21.823,0,0,0,384.316,375V233.175a21.668,21.668,0,0,0-6.15-14.85,23.362,23.362,0,0,0-14.85-6.15c-5.431.243-11.064,2.027-14.849,6.15a21.828,21.828,0,0,0-6.151,14.85V375a21.665,21.665,0,0,0,6.151,14.849A23.371,23.371,0,0,0,363.316,396c5.432-.243,11.064-2.027,14.85-6.151A21.823,21.823,0,0,0,384.316,375V105a21.664,21.664,0,0,0-6.15-14.849A23.37,23.37,0,0,0,363.316,84c-5.431.243-11.064,2.027-14.849,6.151A21.824,21.824,0,0,0,342.316,105Z" transform="translate(-49.727 -83.987)" style="fill:#497986"/><path d="M49.826,105.239v270a21.665,21.665,0,0,0,6.151,14.849,15.743,15.743,0,0,0,6.758,4.343,15.826,15.826,0,0,0,8.091,1.808c5.431-.243,11.064-2.027,14.849-6.151a21.819,21.819,0,0,0,6.151-14.849V233.414a21.66,21.66,0,0,0-6.151-14.849,15.743,15.743,0,0,0-6.758-4.343,15.826,15.826,0,0,0-8.091-1.808c-5.431.243-11.064,2.027-14.849,6.151a21.819,21.819,0,0,0-6.151,14.849V375.239a21.665,21.665,0,0,0,6.151,14.849,15.743,15.743,0,0,0,6.758,4.343,15.826,15.826,0,0,0,8.091,1.808c5.431-.243,11.064-2.027,14.849-6.151a21.819,21.819,0,0,0,6.151-14.849v-270A21.662,21.662,0,0,0,85.675,90.39a15.741,15.741,0,0,0-6.758-4.342,15.816,15.816,0,0,0-8.091-1.809c-5.431.243-11.064,2.027-14.849,6.151a21.821,21.821,0,0,0-6.151,14.849Z" transform="translate(-49.727 -83.987)" style="fill:#497986"/><path d="M139,84.239H70.826A21.66,21.66,0,0,0,55.977,90.39a15.741,15.741,0,0,0-4.342,6.758,15.816,15.816,0,0,0-1.809,8.091c.243,5.431,2.027,11.064,6.151,14.849a21.819,21.819,0,0,0,14.849,6.151h35.81a21.669,21.669,0,0,0,14.85-6.151,15.75,15.75,0,0,0,4.342-6.758,15.816,15.816,0,0,0,1.808-8.091c-.243-5.431-2.027-11.064-6.15-14.849a21.823,21.823,0,0,0-14.85-6.151H70.826A21.66,21.66,0,0,0,55.977,90.39a15.741,15.741,0,0,0-4.342,6.758,15.816,15.816,0,0,0-1.809,8.091c.243,5.431,2.027,11.064,6.151,14.849a21.819,21.819,0,0,0,14.849,6.151H139a21.667,21.667,0,0,0,14.849-6.151,15.741,15.741,0,0,0,4.342-6.758A15.816,15.816,0,0,0,160,105.239c-.243-5.431-2.027-11.064-6.151-14.849A21.821,21.821,0,0,0,139,84.239Z" transform="translate(-49.727 -83.987)" style="fill:#497986"/><path d="M138.913,354.239H70.739A21.667,21.667,0,0,0,55.89,360.39a15.741,15.741,0,0,0-4.342,6.758,15.816,15.816,0,0,0-1.809,8.091c.243,5.431,2.027,11.064,6.151,14.849a21.821,21.821,0,0,0,14.849,6.151h35.81a21.665,21.665,0,0,0,14.85-6.151,23.357,23.357,0,0,0,6.15-14.849c-.243-5.431-2.027-11.064-6.15-14.849a21.823,21.823,0,0,0-14.85-6.151H70.739A21.667,21.667,0,0,0,55.89,360.39a15.741,15.741,0,0,0-4.342,6.758,15.816,15.816,0,0,0-1.809,8.091c.243,5.431,2.027,11.064,6.151,14.849a21.821,21.821,0,0,0,14.849,6.151h68.174a21.66,21.66,0,0,0,14.849-6.151,23.365,23.365,0,0,0,6.151-14.849c-.243-5.431-2.027-11.064-6.151-14.849a21.819,21.819,0,0,0-14.849-6.151Z" transform="translate(-49.727 -83.987)" style="fill:#497986"/><path d="M362.913,84.239H294.739A21.667,21.667,0,0,0,279.89,90.39a15.741,15.741,0,0,0-4.342,6.758,15.816,15.816,0,0,0-1.809,8.091c.243,5.431,2.027,11.064,6.151,14.849a21.821,21.821,0,0,0,14.849,6.151h35.81a21.665,21.665,0,0,0,14.85-6.151,15.741,15.741,0,0,0,4.342-6.758,15.806,15.806,0,0,0,1.808-8.091c-.243-5.431-2.027-11.064-6.15-14.849a21.823,21.823,0,0,0-14.85-6.151h-35.81A21.667,21.667,0,0,0,279.89,90.39a15.741,15.741,0,0,0-4.342,6.758,15.816,15.816,0,0,0-1.809,8.091c.243,5.431,2.027,11.064,6.151,14.849a21.821,21.821,0,0,0,14.849,6.151h68.174a21.66,21.66,0,0,0,14.849-6.151,15.731,15.731,0,0,0,4.342-6.758,15.816,15.816,0,0,0,1.809-8.091c-.243-5.431-2.027-11.064-6.151-14.849a21.819,21.819,0,0,0-14.849-6.151Z" transform="translate(-49.727 -83.987)" style="fill:#497986"/><path d="M362.913,354.239H294.739a21.667,21.667,0,0,0-14.849,6.151,23.365,23.365,0,0,0-6.151,14.849c.243,5.431,2.027,11.064,6.151,14.849a21.821,21.821,0,0,0,14.849,6.151h35.81a21.665,21.665,0,0,0,14.85-6.151,23.357,23.357,0,0,0,6.15-14.849c-.243-5.431-2.027-11.064-6.15-14.849a21.823,21.823,0,0,0-14.85-6.151h-35.81a21.667,21.667,0,0,0-14.849,6.151,23.365,23.365,0,0,0-6.151,14.849c.243,5.431,2.027,11.064,6.151,14.849a21.821,21.821,0,0,0,14.849,6.151h68.174a21.66,21.66,0,0,0,14.849-6.151,23.365,23.365,0,0,0,6.151-14.849c-.243-5.431-2.027-11.064-6.151-14.849a21.819,21.819,0,0,0-14.849-6.151Z" transform="translate(-49.727 -83.987)" style="fill:#497986"/><path d="M315.075,168.506a13.3,13.3,0,0,1-1.16,6.042,9.506,9.506,0,0,1-2.99,3.54,10.4,10.4,0,0,1-3.967,1.709,20.794,20.794,0,0,1-4.09.428q-4.4,0-7.873-.061t-6.775-.184q-3.3-.12-6.9-.183t-8.362-.061q-3.053,0-7.019.367t-8.24.976q-4.273.612-8.545,1.465t-7.934,1.709q-3.663.855-6.41,1.77a21.517,21.517,0,0,0-3.966,1.648q-.857.489-1.526,2.746a14.176,14.176,0,0,0-.672,3.968l-3.173,29.3q-1.832,17.091-3.479,33.63t-1.648,32.654q0,2.2.366,6.286t.854,8.118q.488,4.029.855,7.08t.366,3.3a20.733,20.733,0,0,1-.916,5.982,19,19,0,0,1-2.624,5.493,13.994,13.994,0,0,1-4.212,3.967,10.619,10.619,0,0,1-10.07.488,20.743,20.743,0,0,1-4.517-2.807,21.09,21.09,0,0,1-3.906-4.15,20.861,20.861,0,0,1-2.686-5.067,37.654,37.654,0,0,1-1.709-7.08q-.612-4.028-.976-8.24t-.488-8.3q-.123-4.086-.123-7.385,0-5.493.611-13.855t1.526-17.943q.915-9.584,2.014-19.532t2.137-18.677q1.035-8.726,1.83-15.2t1.038-9.155a91.924,91.924,0,0,0-9.888.672q-5.982.672-12.939,1.525-8.79,1.1-18.067,2.076a168,168,0,0,1-17.578.976q-1.712,0-4.761-.305a29.855,29.855,0,0,1-5.981-1.221,16.837,16.837,0,0,1-5.127-2.563,5.163,5.163,0,0,1-2.2-4.334c-.164-.65-.265-1.077-.306-1.281a10.682,10.682,0,0,1-.061-1.526,21.846,21.846,0,0,1,.367-4.029,10.963,10.963,0,0,1,1.342-3.6,8.762,8.762,0,0,1,2.869-2.868,16.1,16.1,0,0,1,4.822-1.953,113.9,113.9,0,0,1,15.259-2.625,155.859,155.859,0,0,1,16.845-.916q1.585,0,5.921-.488T180.37,169.6q5.8-.732,12.451-1.647t12.7-1.77q6.043-.854,10.8-1.587t6.958-1.1q7.934-1.465,15.869-3.174t15.87-3.3q7.933-1.584,15.808-2.624a119.145,119.145,0,0,1,15.564-1.038q.975,0,3.173.061t5,.305q2.806.246,5.92.733a39.259,39.259,0,0,1,5.8,1.343,8.535,8.535,0,0,1,3.662,2.2,17.991,17.991,0,0,1,2.746,3.54,19.009,19.009,0,0,1,1.771,3.845A10.653,10.653,0,0,1,315.075,168.506Z" transform="translate(-49.727 -83.987)" style="fill:#497986"/></svg>